<svg xmlns="http://www.w3.org/2000/svg" width="19.704" height="18.211" viewBox="0 0 19.704 18.211">
  <g id="Group_43" data-name="Group 43" transform="translate(-453 -457)">
    <path id="Path_70" data-name="Path 70" d="M453.7,475.211h18.313a.688.688,0,0,0,.7-.7V458.986a.688.688,0,0,0-.7-.7h-3.446V457.7a.7.7,0,1,0-1.391,0v.593h-8.52V457.7a.7.7,0,0,0-1.392,0v.593H453.7a.689.689,0,0,0-.7.7v15.547a.7.7,0,0,0,.7.679Zm.7-15.529h2.868v.373a.7.7,0,1,0,1.392,0v-.373h8.52v.373a.7.7,0,1,0,1.391,0v-.373h2.766v1.8H454.391Zm0,3.191h16.921v10.964H454.391Zm0,0" transform="translate(0)" fill="#e47169"/>
    <path id="Path_71" data-name="Path 71" d="M483.31,499.719H473.3a.7.7,0,0,0,0,1.392H483.31a.7.7,0,1,0,0-1.392Zm0,0" transform="translate(-15.443 -33.656)" fill="#e47169"/>
    <path id="Path_72" data-name="Path 72" d="M478.3,515.559H473.3a.7.7,0,0,0,0,1.392H478.3a.7.7,0,1,0,0-1.392Zm0,0" transform="translate(-15.443 -46.136)" fill="#e47169"/>
  </g>
</svg>
