<svg id="Group_65" data-name="Group 65" xmlns="http://www.w3.org/2000/svg" width="24" height="24" viewBox="0 0 24 24">
  <circle id="Ellipse_18" data-name="Ellipse 18" cx="12" cy="12" r="12" fill="#ffd93b"/>
  <path id="Path_100" data-name="Path 100" d="M78.061,66.061A12,12,0,0,1,56.72,73.6,12,12,0,0,0,73.6,56.72,11.987,11.987,0,0,1,78.061,66.061Z" transform="translate(-54.061 -54.061)" fill="#f4c534"/>
  <g id="Group_62" data-name="Group 62" transform="translate(0.481 1.936)">
    <path id="Path_101" data-name="Path 101" d="M97.936,43.674a6.5,6.5,0,0,1,5.292-1.178S99.717,39.136,97.936,43.674Z" transform="translate(-93.826 -41.299)" fill="#3e4347"/>
    <path id="Path_102" data-name="Path 102" d="M306.46,43.674a6.5,6.5,0,0,0-5.292-1.178S304.679,39.136,306.46,43.674Z" transform="translate(-287.531 -41.299)" fill="#3e4347"/>
    <path id="Path_103" data-name="Path 103" d="M33.294,108.233v1.858a.463.463,0,0,1-.092.263c-.259.371-.182.67-.182,1.717,0,2.9-1.921,5-4.57,5-2.8,0-5.2-2.37-5.918-4.736a.789.789,0,0,0-.756-.563h0a.791.791,0,0,0-.757.563c-.716,2.365-3.116,4.736-5.918,4.736-2.649,0-4.57-2.107-4.57-5,0-1.047.078-1.345-.182-1.717a.465.465,0,0,1-.092-.263v-1.858a.432.432,0,0,1,.59-.395,2.792,2.792,0,0,0,2.18-.286c1.832-.942,5.022-.394,6.572.581a3.912,3.912,0,0,0,4.354,0c1.535-.966,4.724-1.531,6.571-.581a2.791,2.791,0,0,0,2.18.286A.432.432,0,0,1,33.294,108.233Z" transform="translate(-10.256 -103.981)" fill="#3e4347"/>
  </g>
  <g id="Group_63" data-name="Group 63" transform="translate(1.731 5.993)">
    <path id="Path_104" data-name="Path 104" d="M283.888,130.73a5.915,5.915,0,0,0,5.364,5.186c2.225,0,3.6-1.8,3.6-4.03s-1.372-4.03-3.6-4.03S283.888,128.5,283.888,130.73Z" transform="translate(-272.312 -127.856)" fill="#65b1ef"/>
    <path id="Path_105" data-name="Path 105" d="M45.889,130.73a5.915,5.915,0,0,1-5.364,5.186c-2.225,0-3.6-1.8-3.6-4.03s1.372-4.03,3.6-4.03S45.889,128.5,45.889,130.73Z" transform="translate(-36.928 -127.856)" fill="#65b1ef"/>
  </g>
  <g id="Group_64" data-name="Group 64" transform="translate(1.743 5.994)">
    <path id="Path_106" data-name="Path 106" d="M49.19,132.688l-5.542,5.542a3.641,3.641,0,0,0,1.2,1.625l6.377-6.377A5.784,5.784,0,0,0,49.19,132.688Z" transform="translate(-43.345 -132.462)" fill="#4e99d2"/>
    <path id="Path_107" data-name="Path 107" d="M37.184,132.712a4.9,4.9,0,0,0,.171,1.034l5.229-5.229c-.364-.059-.73-.1-1.088-.118Z" transform="translate(-37.184 -128.375)" fill="#4e99d2"/>
    <path id="Path_108" data-name="Path 108" d="M310.689,131.008,305.3,136.4a6.807,6.807,0,0,0,1.4,1.426l5.678-5.678A3.291,3.291,0,0,0,310.689,131.008Z" transform="translate(-292.728 -130.861)" fill="#4e99d2"/>
    <path id="Path_109" data-name="Path 109" d="M292.2,133.1l5.172-5.172a3.785,3.785,0,0,0-.6-.052c-.184,0-.376.007-.57.016l-4.424,4.423A5.775,5.775,0,0,0,292.2,133.1Z" transform="translate(-279.842 -127.872)" fill="#4e99d2"/>
  </g>
  <path id="Path_110" data-name="Path 110" d="M119.617,334.762c-1.081,3.535-3.915,6.068-7.26,6.068s-6.18-2.532-7.26-6.076a.333.333,0,0,1,.458-.4c2.636,1.149,10.951,1.167,13.6.008A.33.33,0,0,1,119.617,334.762Z" transform="translate(-100.157 -318.656)" fill="#3e4347"/>
  <path id="Path_111" data-name="Path 111" d="M187.514,414.486a6.714,6.714,0,0,0,3.615-1.075,2.275,2.275,0,0,0-3.1-1.623,1.867,1.867,0,0,1-1.274.07,2.274,2.274,0,0,0-2.815,1.576A6.7,6.7,0,0,0,187.514,414.486Z" transform="translate(-175.314 -392.313)" fill="#e24b4b"/>
  <path id="Path_112" data-name="Path 112" d="M134.889,337.258c-1.341,2.25-3.887,2.9-6.485,2.9s-5.153-.675-6.484-2.909C124.728,338.247,132.071,338.258,134.889,337.258Z" transform="translate(-116.205 -321.439)" fill="#fff"/>
</svg>
