<svg id="Group_67" data-name="Group 67" xmlns="http://www.w3.org/2000/svg" width="24" height="24" viewBox="0 0 24 24">
  <circle id="Ellipse_19" data-name="Ellipse 19" cx="12" cy="12" r="12" fill="#ffd93b"/>
  <path id="Path_113" data-name="Path 113" d="M112.126,305.1a7.39,7.39,0,0,1-7.049-5.14.562.562,0,1,1,1.07-.346,6.278,6.278,0,0,0,11.957,0,.562.562,0,0,1,1.07.346A7.39,7.39,0,0,1,112.126,305.1Z" transform="translate(-100.126 -285.194)" fill="#3e4347"/>
  <path id="Path_114" data-name="Path 114" d="M78.061,66.061A12,12,0,0,1,56.72,73.6,12,12,0,0,0,73.6,56.72,11.987,11.987,0,0,1,78.061,66.061Z" transform="translate(-54.061 -54.061)" fill="#f4c534"/>
  <g id="Group_66" data-name="Group 66" transform="translate(4.519 7.352)">
    <path id="Path_115" data-name="Path 115" d="M101.886,159.52a3.573,3.573,0,0,0-5.486.005,2.744,2.744,0,0,1,5.486-.005Z" transform="translate(-96.4 -156.832)" fill="#3e4347"/>
    <path id="Path_116" data-name="Path 116" d="M304.062,159.52a3.573,3.573,0,0,0-5.486.005,2.744,2.744,0,0,1,5.486-.005Z" transform="translate(-289.099 -156.832)" fill="#3e4347"/>
  </g>
</svg>
