<svg id="Group_57" data-name="Group 57" xmlns="http://www.w3.org/2000/svg" width="24" height="24" viewBox="0 0 24 24">
  <circle id="Ellipse_13" data-name="Ellipse 13" cx="12" cy="12" r="12" fill="#ffd93b"/>
  <path id="Path_88" data-name="Path 88" d="M78.061,66.061A12,12,0,0,1,56.72,73.6,12,12,0,0,0,73.6,56.72,11.987,11.987,0,0,1,78.061,66.061Z" transform="translate(-54.061 -54.061)" fill="#f4c534"/>
  <path id="Path_89" data-name="Path 89" d="M130.017,308.244c1.055.289-.635,5.9-6.2,5.937-5.569-.041-7.259-5.648-6.2-5.937.843-.415,3.1,1.887,6.2,1.887C126.955,310.13,129.174,307.828,130.017,308.244Z" transform="translate(-111.812 -293.747)" fill="#3e4347"/>
  <path id="Path_90" data-name="Path 90" d="M93.177,140.428a.208.208,0,0,1-.265.05c-.675-.355-3.39-1.875-3.65-3.29a1.645,1.645,0,0,1,2.955-1.26,1.625,1.625,0,0,1,1.29-1.195,1.642,1.642,0,0,1,1.915,1.32C95.682,137.468,93.681,139.853,93.177,140.428Z" transform="translate(-85.051 -128.392)" fill="#e24b4b"/>
  <path id="Path_91" data-name="Path 91" d="M93.448,153.054c-.115.14-.215.255-.285.335a.208.208,0,0,1-.265.05c-.675-.355-3.39-1.875-3.65-3.29A1.636,1.636,0,0,1,90.3,148.3a1.643,1.643,0,0,0-.47,1.48C90.088,151.179,92.723,152.673,93.448,153.054Z" transform="translate(-85.038 -141.352)" fill="#d03f3f"/>
  <g id="Group_55" data-name="Group 55" transform="translate(8.572 6.866)" opacity="0.2">
    <ellipse id="Ellipse_14" data-name="Ellipse 14" cx="0.438" cy="0.65" rx="0.438" ry="0.65" transform="translate(0 0.32) rotate(-21.433)" fill="#fff"/>
  </g>
  <path id="Path_92" data-name="Path 92" d="M286.636,140.428a.208.208,0,0,0,.265.05c.675-.355,3.39-1.875,3.65-3.29a1.645,1.645,0,0,0-2.955-1.26,1.625,1.625,0,0,0-1.29-1.195,1.642,1.642,0,0,0-1.915,1.32C284.131,137.468,286.13,139.853,286.636,140.428Z" transform="translate(-271.038 -128.392)" fill="#e24b4b"/>
  <path id="Path_93" data-name="Path 93" d="M326.672,153.054c.115.14.215.255.285.335a.208.208,0,0,0,.265.05c.675-.355,3.39-1.875,3.65-3.29a1.636,1.636,0,0,0-1.055-1.845,1.643,1.643,0,0,1,.47,1.48C330.032,151.179,327.4,152.673,326.672,153.054Z" transform="translate(-311.359 -141.352)" fill="#d03f3f"/>
  <g id="Group_56" data-name="Group 56" transform="translate(13.859 6.867)" opacity="0.2">
    <ellipse id="Ellipse_15" data-name="Ellipse 15" cx="0.65" cy="0.438" rx="0.65" ry="0.438" transform="translate(0 1.211) rotate(-68.567)" fill="#fff"/>
  </g>
  <path id="Path_94" data-name="Path 94" d="M199.118,391.729a7.109,7.109,0,0,0,2.8-.569,2.942,2.942,0,0,0-.928-1.336,1.3,1.3,0,0,0-1.232-.2,2.713,2.713,0,0,1-.818.124,2.865,2.865,0,0,1-.652-.077,1.326,1.326,0,0,0-1.265.354,2.934,2.934,0,0,0-.7,1.132A7.105,7.105,0,0,0,199.118,391.729Z" transform="translate(-187.118 -371.295)" fill="#e24b4b"/>
</svg>
