<svg xmlns="http://www.w3.org/2000/svg" width="51.326" height="23.853" viewBox="0 0 51.326 23.853">
  <g id="Group_2" data-name="Group 2" transform="translate(-23.858)">
    <g id="Group_1" data-name="Group 1" transform="translate(23.858)">
      <path id="Path_1" data-name="Path 1" d="M173.328,100.7a12.1,12.1,0,0,1-11.146,1.84A11.912,11.912,0,0,1,154,91.257q0-.318.017-.632l4.881.6c0,.012,0,.023,0,.035a7.175,7.175,0,0,0,7.208,7.142,7.468,7.468,0,0,0,4.088-1.2Z" transform="translate(-154 -79.308)" fill="#52a6c2" fill-rule="evenodd"/>
      <path id="Path_2" data-name="Path 2" d="M175.443,21.418l-3.1-3.441a7.364,7.364,0,0,0,.6-.666l4.45-4.292-.033-.032.014-.013-4.43-4.263A7.455,7.455,0,0,0,167.071,5.9a7.187,7.187,0,0,0-7.057,5.668l-4.868-.6a11.905,11.905,0,0,1,8-9.2,12.1,12.1,0,0,1,13.4,4.071L180.59,9.81l.03-.029,3.224,3.225-.013.013,3.6,3.476L184.26,19.78l-3.652-3.6-4.062,3.989A11.944,11.944,0,0,1,175.443,21.418Z" transform="translate(-155.003 -1.004)" fill="#e47169" fill-rule="evenodd"/>
      <path id="Path_3" data-name="Path 3" d="M395.9,109.168l3.211-3.338a7.425,7.425,0,0,0,5.687,2.613,7.2,7.2,0,0,0,6.225-3.568,7.09,7.09,0,0,0,.908-2.692l5.014-.088a11.943,11.943,0,0,1-12.017,11.1,12.077,12.077,0,0,1-9.029-4.03Z" transform="translate(-365.691 -89.346)" fill="#52a6c2" fill-rule="evenodd"/>
      <path id="Path_4" data-name="Path 4" d="M485.741,11.3l-5,.088a7.092,7.092,0,0,0-.943-3.022,7.2,7.2,0,0,0-5.369-3.517L474.515,0a12.074,12.074,0,0,1,4.229,1.062A11.932,11.932,0,0,1,485.741,11.3Z" transform="translate(-434.415)" fill="#e47169" fill-rule="evenodd"/>
      <path id="Path_5" data-name="Path 5" d="M379.767,0l-.084,4.831a7.439,7.439,0,0,0-5.319,2.809l-3.351,3.247-3.2-3.212,2.955-2.916a12.067,12.067,0,0,1,9-4.76Z" transform="translate(-341.111)" fill="#52a6c2" fill-rule="evenodd"/>
    </g>
  </g>
</svg>
