<svg id="Group_54" data-name="Group 54" xmlns="http://www.w3.org/2000/svg" width="24" height="24" viewBox="0 0 24 24">
  <circle id="Ellipse_12" data-name="Ellipse 12" cx="12" cy="12" r="12" fill="#ffd93b"/>
  <path id="Path_82" data-name="Path 82" d="M78.061,66.061A12,12,0,0,1,56.72,73.6,12,12,0,0,0,73.6,56.72,11.987,11.987,0,0,1,78.061,66.061Z" transform="translate(-54.061 -54.061)" fill="#f4c534"/>
  <g id="Group_53" data-name="Group 53" transform="translate(5.133 12.245)">
    <path id="Path_83" data-name="Path 83" d="M186.749,372.1a.621.621,0,0,1-.625.625h-5.915a.625.625,0,0,1,0-1.25h5.915A.625.625,0,0,1,186.749,372.1Z" transform="translate(-176.299 -366.304)" fill="#3e4347"/>
    <path id="Path_84" data-name="Path 84" d="M109.621,261.247c.293-.173,1.161.757,2.524.808,1.411.053,2.23-.981,2.524-.808.365.125-.133,2.51-2.524,2.519C109.754,263.757,109.255,261.372,109.621,261.247Z" transform="translate(-109.513 -261.225)" fill="#3e4347"/>
  </g>
  <path id="Path_85" data-name="Path 85" d="M91.258,180.852a.5.5,0,1,1,.159-.987c2.811.451,3.665-1.556,3.674-1.577a.5.5,0,0,1,.926.377A4.224,4.224,0,0,1,91.258,180.852Z" transform="translate(-86.579 -169.634)" fill="#e9b02c"/>
  <path id="Path_86" data-name="Path 86" d="M295.371,261.247c-.293-.173-1.161.757-2.524.808-1.411.053-2.23-.981-2.524-.808-.365.125.133,2.51,2.524,2.519C295.237,263.757,295.736,261.372,295.371,261.247Z" transform="translate(-276.612 -248.981)" fill="#3e4347"/>
  <path id="Path_87" data-name="Path 87" d="M309.918,178.647a.5.5,0,0,1,.926-.379c.037.09.9,2.026,3.674,1.579a.5.5,0,1,1,.159.987A4.226,4.226,0,0,1,309.918,178.647Z" transform="translate(-295.355 -169.616)" fill="#e9b02c"/>
</svg>
