<svg xmlns="http://www.w3.org/2000/svg" xmlns:xlink="http://www.w3.org/1999/xlink" width="34" height="22.667" viewBox="0 0 34 22.667">
  <defs>
    <clipPath id="clip-path">
      <rect id="Rectangle_25" data-name="Rectangle 25" width="34" height="22.667" fill="#e47169"/>
    </clipPath>
  </defs>
  <g id="Group_28" data-name="Group 28" transform="translate(-453 -470)">
    <g id="Group_27" data-name="Group 27" transform="translate(453 470)">
      <g id="Group_26" data-name="Group 26" transform="translate(0 0)" clip-path="url(#clip-path)">
        <path id="Path_57" data-name="Path 57" d="M479.415,470.64H454.2a1.207,1.207,0,0,0-1.2,1.2V491.52a1.206,1.206,0,0,0,1.2,1.2h25.214a1.206,1.206,0,0,0,1.2-1.2v-5.681l4.363,4.364a1.179,1.179,0,0,0,.85.35,1.331,1.331,0,0,0,.469-.087,1.189,1.189,0,0,0,.732-1.112V473.979a1.255,1.255,0,0,0-.732-1.114,1.171,1.171,0,0,0-1.289.265l-4.364,4.363v-5.651a1.232,1.232,0,0,0-1.23-1.2Zm-1.2,9.752v9.957H455.372V473.012h22.842Zm6.413-3.515v9.635l-4.011-4.012v-1.581Zm0,0" transform="translate(-453 -470.406)" fill="#e47169"/>
      </g>
    </g>
  </g>
</svg>
